<svg xmlns="http://www.w3.org/2000/svg" width="79" height="24" viewBox="0 0 73.67 21.99"><path class="fill" style="fill:#2b2a29;fill-rule:nonzero" d="M11.13 20.09c1.16 0 2.23.18 3.37.31.65 0 .75-.6.85-1.21.1-.42.14-.85.36-1.16 0-.1.11-.13.17-.18.1-.1.14-.1.21-.14.11-.1.26-.1.38-.1 0-.39-.27-.55-.19-1.06v-.2c.19 0 .52.1.68 0 .1-.1.13-.16.11-.35-.1-.39-.19-.82.1-1.17v-.1c.51-.25 1.15-.46 1.22-1.11-.09-.31-.28-.62-.46-.92-.38-.64-.74-1.25-.99-1.95.19-.61.3-1.144.33-1.782 0-2.847-1.27-5.38-3.62-7.042A8.105 8.105 0 0 0 7.71.516c-1.17.177-2.399.567-3.426 1.211C1.61 3.405 1.18 6.724 1.704 9.643c.145.817.308 1.717.257 2.247C1.816 13.4.496 13.95.423 15.34c-.136 2.62 3.919 6.23 6.033 6.28.821 0 1.551-.36 2.28-.74.749-.39 1.504-.79 2.394-.79zm0 .41c-.79 0-1.504.38-2.21.75-.766.4-1.545.81-2.473.79-2.361-.06-6.593-3.86-6.442-6.72.08-1.57 1.402-2.07 1.538-3.47.045-.47-.112-1.35-.253-2.133-.561-3.136-.061-6.503 2.769-8.344h.001C5.142.695 6.429.286 7.648.1c2.318-.353 4.502.257 6.242 1.483 2.34 1.652 3.92 4.509 3.79 7.402 0 .597-.12 1.195-.3 1.745.25.64.58 1.2.91 1.75.21.35.41.7.6 1.06-.1.96-.63 1.17-1.41 1.54-.16.32 0 .6 0 .86 0 .38-.1.61-.32.74-.14.1-.32.12-.51.12 0 .38.3.42.17 1-.1.17-.24.19-.39.23-.2.1-.3.1-.42.25-.17.23-.23.61-.29.98-.12.79-.25 1.58-1.26 1.56-1.09 0-2.18-.32-3.35-.32z"/><path class="fill" style="fill:#2b2a29;fill-rule:nonzero" d="M11.95 15.02c.74 0 1.43.12 2.16.2.42 0 .48-.38.54-.77 0-.27.1-.55.24-.75l.11-.11s.1-.1.13-.1c.1 0 .16-.1.24-.1 0-.25-.17-.35-.12-.68v-.12h.44s.1-.1.1-.23c0-.24-.12-.52 0-.75.33-.16.74-.29.79-.71-.11-.2-.22-.4-.34-.59-.17-.433-.41-.825-.57-1.274.12-.388.19-.731.21-1.14 0-1.825-.81-3.448-2.32-4.514a5.188 5.188 0 0 0-3.803-.902c-.75.113-1.537.362-2.196.776-1.714 1.075-1.99 3.202-1.654 5.074.093.52.197 1.102.165 1.441-.093.959-.939 1.319-.986 2.209C5 13.66 7.597 15.97 8.953 16c.526 0 .994-.23 1.457-.47.48-.25.97-.5 1.54-.51zm0 .27c-.5 0-.96.24-1.41.48-.5.26-.998.52-1.592.5-1.514 0-4.227-2.47-4.13-4.3.052-1.01.899-1.33.986-2.225.028-.304-.072-.865-.162-1.369-.36-2.01-.04-4.167 1.775-5.348.694-.435 1.519-.696 2.3-.815a5.474 5.474 0 0 1 4.003.95c1.5 1.058 2.51 2.89 2.43 4.745 0 .382-.1.763-.19 1.12.15.406.37.764.58 1.122.13.22.26.44.38.67-.1.62-.4.76-.9.99-.1.21 0 .39 0 .55 0 .25-.1.4-.21.48-.1.1-.2.1-.33.1 0 .24.2.26.11.64 0 .11-.15.12-.25.15-.13 0-.19 0-.27.16-.11.14-.14.38-.18.62-.1.51-.16 1.02-.81 1-.71 0-1.4-.2-2.16-.2z"/><path class="fill" style="fill:#2b2a29;fill-rule:nonzero" d="M9.554 18.48c.746 0 1.436.12 2.176.21.42 0 .49-.39.55-.78 0-.28.1-.56.24-.76l.11-.11s.1-.1.13-.1c.1 0 .17-.1.24-.1 0-.25-.17-.36-.12-.69v-.12h.44c.1 0 .1-.1.1-.23-.1-.25-.13-.53 0-.76.33-.16.75-.3.8-.72-.11-.2-.23-.4-.35-.6-.24-.41-.48-.8-.64-1.26.12-.39.19-.74.21-1.15.08-1.862-.74-3.5-2.26-4.575a5.238 5.238 0 0 0-3.841-.912c-.758.114-1.552.367-2.217.783-1.729 1.086-2.008 3.233-1.669 5.124.09.52.2 1.11.167 1.45-.1.98-.948 1.33-.996 2.24-.09 1.69 2.535 4.02 3.903 4.05.532 0 1.004-.23 1.476-.47.484-.25.972-.5 1.551-.51zm.001.28c-.508 0-.97.24-1.427.48-.502.26-1.006.52-1.607.51-1.526-.04-4.265-2.5-4.168-4.35.052-1.01.908-1.34.996-2.24.028-.31-.073-.88-.164-1.38-.363-2.033-.039-4.211 1.792-5.403.701-.438 1.533-.703 2.321-.824a5.531 5.531 0 0 1 4.042.96c1.51 1.069 2.53 2.918 2.45 4.787 0 .39-.1.77-.19 1.13.15.41.37.78.58 1.13.14.23.27.45.39.69-.1.62-.41.76-.91 1-.1.2 0 .38 0 .55 0 .25-.1.4-.21.48-.1.1-.21.1-.33.1 0 .25.2.27.11.65 0 .11-.16.12-.26.15-.12 0-.19.1-.27.16-.1.14-.14.39-.18.63-.1.51-.16 1.02-.82 1.01-.71 0-1.41-.21-2.175-.2z"/><path class="fill" style="fill:#2b2a29;fill-rule:nonzero" d="M9.083 15.15c.745 0 1.427.12 2.157.2.42 0 .48-.38.55-.77 0-.27.1-.55.23-.74 0-.1.1-.1.11-.12 0 0 .1-.1.13-.1.1 0 .17-.1.24-.1 0-.24-.17-.35-.12-.68v-.12h.44c.1 0 .1-.1.1-.23-.1-.24-.12-.52 0-.74.33-.16.73-.29.78-.71-.1-.2-.22-.4-.34-.59-.16-.44-.39-.834-.55-1.283.12-.388.19-.731.2-1.14 0-1.825-.81-3.448-2.31-4.514a5.215 5.215 0 0 0-3.81-.902c-.751.113-1.537.362-2.196.776C2.979 4.462 2.704 6.59 3.04 8.461c.09.52.197 1.102.165 1.441-.09.968-.939 1.318-.986 2.208-.09 1.68 2.511 3.99 3.867 4.02.526 0 .994-.23 1.462-.47.479-.25.962-.5 1.535-.51zm0 .27c-.505 0-.962.24-1.414.48-.495.26-.994.52-1.589.5-1.513-.03-4.226-2.47-4.13-4.3.052-1.01.899-1.33.987-2.224.028-.303-.072-.865-.162-1.369-.36-2.01-.04-4.167 1.774-5.348.695-.435 1.52-.696 2.3-.815a5.457 5.457 0 0 1 4.001.95c1.5 1.058 2.51 2.89 2.43 4.745 0 .382-.1.763-.19 1.12.16.406.37.764.58 1.121.14.22.26.45.39.68-.1.61-.41.75-.91.99-.1.2 0 .38 0 .54 0 .25-.1.4-.21.48-.1.1-.2.1-.32.1 0 .24.19.27.1.64 0 .11-.15.12-.25.15-.12 0-.19.1-.26.16-.11.14-.15.38-.19.62-.1.51-.16 1.02-.81 1-.71 0-1.4-.2-2.154-.2z"/><path class="fill" style="fill:#2b2a29;fill-rule:nonzero" d="M12.03 19.13c.75 0 1.43.12 2.16.2.41 0 .47-.38.54-.77 0-.28.1-.55.23-.75l.11-.11s.1-.1.13-.1c.1 0 .17-.1.24-.1 0-.25-.17-.35-.12-.68v-.13h.44c.1 0 .1-.1.1-.23 0-.25-.12-.52 0-.75.33-.15.73-.29.78-.7-.1-.21-.22-.4-.34-.6-.24-.41-.47-.8-.63-1.25.12-.39.19-.73.21-1.14 0-1.82-.81-3.446-2.32-4.511-.97-.768-2.31-1.138-3.719-.923-.75.114-1.537.363-2.196.776-1.715 1.075-1.99 3.198-1.654 5.078.09.52.197 1.1.165 1.44-.09.96-.939 1.32-.986 2.21-.09 1.68 2.511 3.99 3.867 4.02.526 0 .993-.23 1.463-.47.48-.25.96-.51 1.53-.51zm0 .27c-.51 0-.96.24-1.42.47-.49.26-.994.52-1.588.51-1.514 0-4.227-2.47-4.13-4.31.05-1 .899-1.32.986-2.22.03-.3-.07-.86-.162-1.37-.36-2.01-.04-4.164 1.775-5.346.704-.435 1.529-.696 2.31-.815a5.446 5.446 0 0 1 3.999.95c1.5 1.058 2.51 2.891 2.43 4.741 0 .39-.1.77-.19 1.12.16.41.37.77.58 1.12.14.23.26.45.39.68-.1.62-.41.75-.91.99-.1.21 0 .39 0 .55 0 .25-.1.4-.2.48-.1.1-.21.1-.33.1 0 .25.19.27.1.65 0 .1-.15.12-.25.14-.12 0-.19.1-.26.16-.11.15-.15.39-.19.63-.1.5-.16 1.01-.81 1-.7 0-1.4-.21-2.15-.2z"/><path class="text" style="fill:#2b2a29" d="m29.33 19.12 1.01 1.49c-.37.3-.77.54-1.21.71-.44.16-.86.28-1.27.34-.47.1-.94.11-1.41.11-.66 0-1.25-.1-1.76-.28-.21-.1-.43-.21-.64-.36-.21-.16-.4-.35-.56-.58-.17-.23-.3-.5-.39-.83-.1-.32-.15-.7-.15-1.15v-3.29c0-.43.1-.8.15-1.13.1-.31.22-.59.39-.81.16-.23.35-.42.56-.57.21-.15.43-.26.64-.35.51-.22 1.1-.32 1.76-.31.47 0 .94.1 1.41.16.41.1.83.19 1.27.34.44.15.84.37 1.21.65l-1.01 1.51c-.29-.17-.6-.29-.93-.39-.33-.1-.65-.15-.94-.2-.33-.1-.67-.1-1.01-.1-.31 0-.58 0-.8.1-.21.1-.39.17-.55.34-.16.17-.24.42-.24.76v3.29c0 .37.1.64.24.81.16.17.34.29.55.35.22.1.49.11.8.1.34 0 .68 0 1.01-.1.29 0 .61-.1.94-.19.33-.1.64-.23.93-.44zm43.45 0 1.01 1.49c-.37.3-.77.54-1.21.71-.44.16-.86.28-1.27.34-.47.1-.94.11-1.41.11-.67 0-1.25-.1-1.76-.28-.22-.1-.43-.21-.64-.36-.21-.16-.4-.35-.57-.58-.16-.23-.29-.5-.39-.83-.1-.32-.14-.7-.14-1.15v-3.29c0-.43 0-.8.14-1.13.1-.31.23-.59.39-.81.17-.23.36-.42.57-.57.21-.15.42-.26.64-.35.51-.22 1.09-.32 1.76-.31.47 0 .94.1 1.41.16.41.1.83.19 1.27.34.44.15.84.37 1.21.65l-1.01 1.51c-.29-.17-.61-.29-.94-.39-.33-.1-.64-.15-.93-.2-.33-.1-.67-.1-1.01-.1-.31 0-.58 0-.81.1-.2.1-.38.17-.54.34-.16.17-.24.42-.24.76v3.29c0 .37.1.64.24.81.16.17.34.29.54.35.23.1.5.11.81.1.34 0 .68 0 1.01-.1.29 0 .6-.1.93-.19.33-.1.65-.23.94-.44zm-20.07-1.33c-.26 0-.5.1-.74.12-.23.1-.44.14-.62.25-.18.12-.32.26-.44.44-.11.17-.17.37-.17.62s.1.45.17.59c.12.14.26.24.44.3.18.1.39.1.62.1.24 0 .48 0 .74-.1.57-.1 1.23-.27 1.96-.55v-1.78c-.73-.1-1.39-.1-1.96 0zm1.96 3.97v-.19c-1.1.33-2.09.46-2.96.42-.37 0-.72-.1-1.07-.17-.35-.11-.67-.27-.95-.5-.28-.23-.5-.53-.67-.9-.16-.37-.25-.84-.25-1.41 0-.5.1-.92.25-1.26.17-.35.39-.63.67-.86.28-.23.6-.41.95-.55.35-.13.7-.23 1.07-.3.87-.13 1.86-.13 2.96 0 0-.35 0-.68-.15-.97-.1-.25-.28-.48-.52-.69-.25-.2-.62-.3-1.1-.3-.5 0-.93 0-1.29.12-.37.1-.67.18-.93.28-.29.13-.54.26-.74.4l-.78-1.77c.28-.2.61-.36.99-.5.33-.13.72-.24 1.17-.34.46-.11.98-.16 1.58-.16 1.29 0 2.23.34 2.83 1.01.61.68.91 1.65.91 2.92v5.72h-1.97zm-8.84-9.58v2.72c-1.09-.21-2.89-.2-3.93 0v-2.72h-1.97v9.54h1.97v-4.91c0-.66 3.93-.66 3.93 0v4.91h1.97v-9.54h-1.97zm16.92 0c.37 0 .72.1 1.07.22.34.12.65.3.93.55.27.25.49.57.65.98.17.39.25.9.25 1.51v6.27H63.7v-6.63c0-.24-.1-.44-.16-.58-.11-.15-.25-.26-.44-.34-.18-.1-.39-.12-.62-.13h-.71c-.57 0-1.22.19-1.94.42v7.24h-1.95v-9.55h1.95v.38c1.09-.31 2.07-.43 2.92-.36zM34.09 21.7c-.37 0-.73-.1-1.07-.22-.34-.12-.65-.31-.93-.56-.27-.25-.49-.57-.66-.97-.16-.4-.25-.91-.25-1.52v-6.26h1.95v6.62c0 .24.1.44.16.59.11.14.26.26.44.33.19.1.39.12.63.13h.7c.57-.1 1.22-.19 1.95-.43v-7.23h1.95v9.55h-1.95v-.39c-1.1.31-2.07.43-2.92.37z"/></svg>